<svg width="400" height="400" viewBox="0 0 400 400" fill="none" xmlns="http://www.w3.org/2000/svg">
<path d="M117.5 300L100 282.5L220 162.5H187.5V187.5H162.5V137.5H235.313C238.646 137.5 241.875 138.125 245 139.375C248.125 140.625 250.834 142.396 253.125 144.688L290.625 181.875C296.25 187.5 303.125 191.875 311.25 195C319.375 198.125 328.125 199.792 337.5 200V225C324.584 225 312.865 223.021 302.344 219.063C291.823 215.104 282.5 209.167 274.375 201.25L261.875 188.125L234.375 215.625L262.5 243.75L180.625 290.938L168.125 269.375L221.875 238.438L200.625 217.188L117.5 300ZM87.5001 212.5V187.5H150V212.5H87.5001ZM62.5 175V150H125V175H62.5ZM293.438 150C286.563 150 280.625 147.552 275.625 142.656C270.625 137.761 268.125 131.875 268.125 125C268.125 118.125 270.625 112.24 275.625 107.344C280.625 102.448 286.563 100 293.438 100C300.313 100 306.25 102.448 311.25 107.344C316.25 112.24 318.75 118.125 318.75 125C318.75 131.875 316.25 137.761 311.25 142.656C306.25 147.552 300.313 150 293.438 150ZM87.5001 137.5V112.5H150V137.5C125.592 137.5 111.908 137.5 87.5001 137.5Z" fill="#2F1EEA"/>
<mask id="mask0_65_24" style="mask-type:alpha" maskUnits="userSpaceOnUse" x="0" y="0" width="400" height="400">
<circle cx="200" cy="200" r="195" fill="#2F1EEA" stroke="#2F1EEA" stroke-width="10"/>
</mask>
<g mask="url(#mask0_65_24)">
<path d="M-35 296H103V344H-35V296Z" fill="#2F1EEA"/>
<path d="M111 296H249V344H111V296Z" fill="#2F1EEA"/>
<path d="M257 296H395V344H257V296Z" fill="#2F1EEA"/>
<path d="M19 352H157V400H19V352Z" fill="#2F1EEA"/>
<path d="M165 352H303V400H165V352Z" fill="#2F1EEA"/>
<path d="M311 352H449V400H311V352Z" fill="#2F1EEA"/>
<path d="M-8 408H130V456H-8V408Z" fill="#2F1EEA"/>
<path d="M138 408H276V456H138V408Z" fill="#2F1EEA"/>
<path d="M284 408H422V456H284V408Z" fill="#2F1EEA"/>
</g>
<circle cx="200" cy="200" r="193.5" stroke="#2F1EEA" stroke-width="13"/>
</svg>
