<svg width="500" height="500" viewBox="0 0 500 500" fill="none" xmlns="http://www.w3.org/2000/svg">
<path fill-rule="evenodd" clip-rule="evenodd" d="M500 250C500 284.783 492.897 317.907 480.061 348H448V400H450.018C442.842 409.554 434.997 418.577 426.553 427H385V460.453C376.042 466.211 366.692 471.413 357 476.01V427H231V479H350.452C319.709 492.504 285.73 500 250 500C214.27 500 180.291 492.504 149.548 479H203V427H77V430.475C67.1951 421.074 58.1548 410.881 49.9817 400H112V348H19.9388C7.10344 317.907 0 284.783 0 250C0 111.929 111.929 0 250 0C388.071 0 500 111.929 500 250ZM140 348H266V400H140V348ZM420 348H294V400H420V348ZM152.479 330.529L169.502 347.553L250.363 266.996L271.034 287.667L218.748 317.762L230.908 338.737L310.553 292.835L283.194 265.476L309.945 238.725L322.104 251.492C330.008 259.193 339.077 264.969 349.311 268.82C359.546 272.67 370.945 274.596 383.51 274.596V250.276C374.39 250.074 365.879 248.452 357.975 245.413C350.071 242.373 343.384 238.117 337.912 232.645L301.433 196.47C299.204 194.241 296.569 192.519 293.529 191.303C290.49 190.087 287.348 189.479 284.106 189.479H213.276V238.117H237.596V213.798H269.21L152.479 330.529ZM140.319 238.117V262.436H201.117V238.117H140.319ZM116 201.638V225.957H176.798V201.638H116ZM323.32 194.494C328.184 199.257 333.96 201.638 340.648 201.638C347.335 201.638 353.111 199.257 357.975 194.494C362.839 189.732 365.271 184.007 365.271 177.319C365.271 170.631 362.839 164.906 357.975 160.144C353.111 155.381 347.335 153 340.648 153C333.96 153 328.184 155.381 323.32 160.144C318.457 164.906 316.025 170.631 316.025 177.319C316.025 184.007 318.457 189.732 323.32 194.494ZM140.319 165.16V189.479H201.117V165.16H140.319Z" fill="#2F1EEA"/>
</svg>
