<svg width="61" height="69" viewBox="0 0 61 69" fill="none" xmlns="http://www.w3.org/2000/svg">
<path d="M47.3042 18.5553C47.3042 28.3622 39.7053 36.2738 30.3778 36.2738C21.0503 36.2738 13.4514 28.3622 13.4514 18.5553C13.4514 8.74851 21.0503 0.836853 30.3778 0.836853C39.7053 0.836853 47.3042 8.74851 47.3042 18.5553Z" fill="#2E37B1" stroke="#CEBCBC"/>
<path d="M59.5818 52.616C59.5818 56.7145 56.4376 60.5429 51.0896 63.3763C45.7639 66.1979 38.372 67.9582 30.1797 67.9582C21.9874 67.9582 14.5955 66.1979 9.26979 63.3763C3.9218 60.5429 0.777588 56.7145 0.777588 52.616C0.777588 48.5176 3.9218 44.6891 9.26979 41.8558C14.5955 39.0342 21.9874 37.2739 30.1797 37.2739C38.372 37.2739 45.7639 39.0342 51.0896 41.8558C56.4376 44.6891 59.5818 48.5176 59.5818 52.616Z" fill="#2E37B1" stroke="#CEBCBC"/>
</svg>
